<svg xmlns="http://www.w3.org/2000/svg"  viewBox="0 0 24 24" width="24px" height="24px"><path fill="none" stroke="#000" stroke-miterlimit="10" stroke-width="2" d="M10.278,12.24L6.106,7.909	c-0.247-0.256-0.654-0.256-0.901,0l-3.027,3.143c-0.237,0.246-0.237,0.638,0,0.884l7.581,7.872c0.247,0.256,0.654,0.256,0.901,0	l2.913-3.025"/><path fill="none" stroke="#000" stroke-miterlimit="10" stroke-width="2" d="M9.762,19.806l-3.008-3.124	c-0.245-0.254-0.245-0.669,0-0.923L17.894,4.192c0.247-0.256,0.654-0.256,0.901,0l3.008,3.124c0.245,0.254,0.245,0.669,0,0.923	L10.663,19.806C10.416,20.062,10.008,20.062,9.762,19.806z"/><path fill="none" stroke="#000" stroke-miterlimit="10" stroke-width="2" d="M9.762,19.806l-3.008-3.124	c-0.245-0.254-0.245-0.669,0-0.923L17.894,4.192c0.247-0.256,0.654-0.256,0.901,0l3.027,3.143c0.237,0.246,0.237,0.638,0,0.884	L10.663,19.806C10.416,20.062,10.008,20.062,9.762,19.806z"/><path d="M10.278,12.24L6.106,7.909c-0.247-0.256-0.654-0.256-0.901,0l-3.027,3.143	c-0.237,0.246-0.237,0.638,0,0.884C3.785,13.291,5.393,14.645,7,16l0,0c0.333-0.333,0.667-0.667,1-1c0.667-0.667,1.333-1.333,2-2" opacity=".3"/><path d="M9.762,19.806l-3.008-3.124c-0.245-0.254-0.245-0.669,0-0.923L17.894,4.192	c0.247-0.256,0.654-0.256,0.901,0l3.008,3.124c0.245,0.254,0.245,0.669,0,0.923L10.663,19.806	C10.416,20.062,10.008,20.062,9.762,19.806z" opacity=".3"/></svg>